<mxfile host="app.diagrams.net" modified="2023-10-02T11:20:52.066Z" agent="Mozilla/5.0 (Windows NT 10.0; Win64; x64) AppleWebKit/537.36 (KHTML, like Gecko) Chrome/116.0.5845.2271 YaBrowser/23.9.0.2271 Yowser/2.5 Safari/537.36" etag="vkbK_Mk5wIqj3Fb9zZVE" version="22.0.0" type="device">
  <diagram name="Страница — 1" id="B6j-Y7zgenJgLeFzUoZr">
    <mxGraphModel dx="955" dy="494" grid="1" gridSize="10" guides="1" tooltips="1" connect="1" arrows="1" fold="1" page="1" pageScale="1" pageWidth="827" pageHeight="1169" math="0" shadow="0">
      <root>
        <mxCell id="0" />
        <mxCell id="1" parent="0" />
        <mxCell id="8u_2m2-8aZRo1fEBBMz4-1" value="&lt;b&gt;Автосалон&lt;/b&gt;" style="rounded=0;whiteSpace=wrap;html=1;" parent="1" vertex="1">
          <mxGeometry x="350" y="250" width="120" height="60" as="geometry" />
        </mxCell>
        <mxCell id="8u_2m2-8aZRo1fEBBMz4-2" value="&lt;font style=&quot;font-size: 8px;&quot;&gt;Поставщики&lt;/font&gt;" style="text;html=1;align=center;verticalAlign=middle;resizable=0;points=[];autosize=1;strokeColor=none;fillColor=none;" parent="1" vertex="1">
          <mxGeometry x="395" y="200" width="70" height="30" as="geometry" />
        </mxCell>
        <mxCell id="8u_2m2-8aZRo1fEBBMz4-3" value="" style="endArrow=classic;html=1;rounded=0;entryX=0.25;entryY=0;entryDx=0;entryDy=0;" parent="1" edge="1">
          <mxGeometry width="50" height="50" relative="1" as="geometry">
            <mxPoint x="400" y="190" as="sourcePoint" />
            <mxPoint x="400" y="250" as="targetPoint" />
          </mxGeometry>
        </mxCell>
        <mxCell id="8u_2m2-8aZRo1fEBBMz4-6" value="&lt;font style=&quot;font-size: 8px;&quot;&gt;Банки&lt;/font&gt;" style="text;html=1;align=center;verticalAlign=middle;resizable=0;points=[];autosize=1;strokeColor=none;fillColor=none;" parent="1" vertex="1">
          <mxGeometry x="364" y="321" width="50" height="30" as="geometry" />
        </mxCell>
        <mxCell id="8u_2m2-8aZRo1fEBBMz4-7" value="" style="endArrow=none;html=1;rounded=0;endFill=0;startArrow=classic;startFill=1;" parent="1" edge="1">
          <mxGeometry width="50" height="50" relative="1" as="geometry">
            <mxPoint x="371" y="310" as="sourcePoint" />
            <mxPoint x="371" y="360" as="targetPoint" />
          </mxGeometry>
        </mxCell>
        <mxCell id="8u_2m2-8aZRo1fEBBMz4-8" value="&lt;font style=&quot;font-size: 8px;&quot;&gt;Автомобили и детали&lt;/font&gt;" style="text;html=1;align=center;verticalAlign=middle;resizable=0;points=[];autosize=1;strokeColor=none;fillColor=none;" parent="1" vertex="1">
          <mxGeometry x="250" y="250" width="100" height="30" as="geometry" />
        </mxCell>
        <mxCell id="8u_2m2-8aZRo1fEBBMz4-9" value="" style="endArrow=classic;html=1;rounded=0;entryX=0;entryY=0.5;entryDx=0;entryDy=0;" parent="1" target="8u_2m2-8aZRo1fEBBMz4-1" edge="1">
          <mxGeometry width="50" height="50" relative="1" as="geometry">
            <mxPoint x="250" y="280" as="sourcePoint" />
            <mxPoint x="290" y="305" as="targetPoint" />
          </mxGeometry>
        </mxCell>
        <mxCell id="8u_2m2-8aZRo1fEBBMz4-10" value="&lt;font style=&quot;font-size: 8px;&quot;&gt;Готовые заказы&lt;/font&gt;" style="text;html=1;align=center;verticalAlign=middle;resizable=0;points=[];autosize=1;strokeColor=none;fillColor=none;" parent="1" vertex="1">
          <mxGeometry x="470" y="250" width="80" height="30" as="geometry" />
        </mxCell>
        <mxCell id="8u_2m2-8aZRo1fEBBMz4-11" value="" style="endArrow=none;html=1;rounded=0;exitX=1;exitY=0.5;exitDx=0;exitDy=0;endFill=0;" parent="1" source="8u_2m2-8aZRo1fEBBMz4-1" edge="1">
          <mxGeometry width="50" height="50" relative="1" as="geometry">
            <mxPoint x="510" y="278.89" as="sourcePoint" />
            <mxPoint x="550" y="279" as="targetPoint" />
          </mxGeometry>
        </mxCell>
        <mxCell id="8u_2m2-8aZRo1fEBBMz4-21" style="edgeStyle=orthogonalEdgeStyle;rounded=1;orthogonalLoop=1;jettySize=auto;html=1;entryX=0;entryY=0.5;entryDx=0;entryDy=0;" parent="1" source="8u_2m2-8aZRo1fEBBMz4-12" target="8u_2m2-8aZRo1fEBBMz4-15" edge="1">
          <mxGeometry relative="1" as="geometry">
            <Array as="points">
              <mxPoint x="890" y="210" />
              <mxPoint x="890" y="270" />
            </Array>
          </mxGeometry>
        </mxCell>
        <mxCell id="8u_2m2-8aZRo1fEBBMz4-12" value="&lt;b&gt;Прием автомобилей&lt;/b&gt;" style="rounded=0;whiteSpace=wrap;html=1;" parent="1" vertex="1">
          <mxGeometry x="760" y="180" width="120" height="60" as="geometry" />
        </mxCell>
        <mxCell id="8u_2m2-8aZRo1fEBBMz4-13" value="&lt;font style=&quot;font-size: 10px;&quot;&gt;Автомобили и детали&lt;/font&gt;" style="text;html=1;align=center;verticalAlign=middle;resizable=0;points=[];autosize=1;strokeColor=none;fillColor=none;" parent="1" vertex="1">
          <mxGeometry x="646" y="180" width="120" height="30" as="geometry" />
        </mxCell>
        <mxCell id="8u_2m2-8aZRo1fEBBMz4-14" value="" style="endArrow=classic;html=1;rounded=0;entryX=0;entryY=0.5;entryDx=0;entryDy=0;exitX=0.053;exitY=1.017;exitDx=0;exitDy=0;exitPerimeter=0;" parent="1" source="8u_2m2-8aZRo1fEBBMz4-13" edge="1">
          <mxGeometry width="50" height="50" relative="1" as="geometry">
            <mxPoint x="660" y="210" as="sourcePoint" />
            <mxPoint x="760" y="210" as="targetPoint" />
          </mxGeometry>
        </mxCell>
        <mxCell id="8u_2m2-8aZRo1fEBBMz4-22" style="edgeStyle=orthogonalEdgeStyle;rounded=1;orthogonalLoop=1;jettySize=auto;html=1;entryX=0;entryY=0.5;entryDx=0;entryDy=0;" parent="1" source="8u_2m2-8aZRo1fEBBMz4-15" target="8u_2m2-8aZRo1fEBBMz4-16" edge="1">
          <mxGeometry relative="1" as="geometry">
            <Array as="points">
              <mxPoint x="1040" y="270" />
              <mxPoint x="1040" y="330" />
            </Array>
          </mxGeometry>
        </mxCell>
        <mxCell id="8u_2m2-8aZRo1fEBBMz4-15" value="&lt;b&gt;Маркетинг и реклама&lt;/b&gt;" style="rounded=0;whiteSpace=wrap;html=1;" parent="1" vertex="1">
          <mxGeometry x="910" y="240" width="120" height="60" as="geometry" />
        </mxCell>
        <mxCell id="8u_2m2-8aZRo1fEBBMz4-23" style="edgeStyle=orthogonalEdgeStyle;rounded=1;orthogonalLoop=1;jettySize=auto;html=1;entryX=0;entryY=0.5;entryDx=0;entryDy=0;" parent="1" source="8u_2m2-8aZRo1fEBBMz4-16" target="8u_2m2-8aZRo1fEBBMz4-17" edge="1">
          <mxGeometry relative="1" as="geometry">
            <Array as="points">
              <mxPoint x="1190" y="330" />
              <mxPoint x="1190" y="390" />
            </Array>
          </mxGeometry>
        </mxCell>
        <mxCell id="8u_2m2-8aZRo1fEBBMz4-16" value="&lt;b&gt;Продажа автомобилей&lt;/b&gt;" style="rounded=0;whiteSpace=wrap;html=1;" parent="1" vertex="1">
          <mxGeometry x="1060" y="300" width="120" height="60" as="geometry" />
        </mxCell>
        <mxCell id="8u_2m2-8aZRo1fEBBMz4-24" style="edgeStyle=orthogonalEdgeStyle;rounded=1;orthogonalLoop=1;jettySize=auto;html=1;entryX=0;entryY=0.5;entryDx=0;entryDy=0;" parent="1" source="8u_2m2-8aZRo1fEBBMz4-17" target="8u_2m2-8aZRo1fEBBMz4-18" edge="1">
          <mxGeometry relative="1" as="geometry">
            <Array as="points">
              <mxPoint x="1340" y="390" />
              <mxPoint x="1340" y="450" />
            </Array>
          </mxGeometry>
        </mxCell>
        <mxCell id="8u_2m2-8aZRo1fEBBMz4-17" value="&lt;b&gt;Кредитование и лизинг&lt;/b&gt;" style="rounded=0;whiteSpace=wrap;html=1;" parent="1" vertex="1">
          <mxGeometry x="1210" y="360" width="120" height="60" as="geometry" />
        </mxCell>
        <mxCell id="8u_2m2-8aZRo1fEBBMz4-18" value="&lt;b&gt;Сервисное обслуживание&lt;/b&gt;" style="rounded=0;whiteSpace=wrap;html=1;" parent="1" vertex="1">
          <mxGeometry x="1360" y="420" width="120" height="60" as="geometry" />
        </mxCell>
        <mxCell id="8u_2m2-8aZRo1fEBBMz4-19" value="&lt;font style=&quot;font-size: 10px;&quot;&gt;Готовые заказы&lt;/font&gt;" style="text;html=1;align=center;verticalAlign=middle;resizable=0;points=[];autosize=1;strokeColor=none;fillColor=none;" parent="1" vertex="1">
          <mxGeometry x="1473" y="425.97" width="100" height="30" as="geometry" />
        </mxCell>
        <mxCell id="8u_2m2-8aZRo1fEBBMz4-20" value="" style="endArrow=none;html=1;rounded=0;exitX=1;exitY=0.5;exitDx=0;exitDy=0;endFill=0;" parent="1" edge="1">
          <mxGeometry width="50" height="50" relative="1" as="geometry">
            <mxPoint x="1480" y="453.97" as="sourcePoint" />
            <mxPoint x="1560" y="452.97" as="targetPoint" />
          </mxGeometry>
        </mxCell>
        <mxCell id="8u_2m2-8aZRo1fEBBMz4-25" value="&lt;font style=&quot;font-size: 8px;&quot;&gt;Персонал предприятия&lt;/font&gt;" style="text;html=1;align=center;verticalAlign=middle;resizable=0;points=[];autosize=1;strokeColor=none;fillColor=none;" parent="1" vertex="1">
          <mxGeometry x="430" y="321" width="110" height="30" as="geometry" />
        </mxCell>
        <mxCell id="8u_2m2-8aZRo1fEBBMz4-26" value="" style="endArrow=none;html=1;rounded=0;endFill=0;startArrow=classic;startFill=1;" parent="1" edge="1">
          <mxGeometry width="50" height="50" relative="1" as="geometry">
            <mxPoint x="437" y="311" as="sourcePoint" />
            <mxPoint x="437" y="361" as="targetPoint" />
          </mxGeometry>
        </mxCell>
        <mxCell id="8u_2m2-8aZRo1fEBBMz4-30" style="edgeStyle=orthogonalEdgeStyle;rounded=1;orthogonalLoop=1;jettySize=auto;html=1;entryX=0.5;entryY=0;entryDx=0;entryDy=0;jumpStyle=arc;" parent="1" source="8u_2m2-8aZRo1fEBBMz4-27" target="8u_2m2-8aZRo1fEBBMz4-12" edge="1">
          <mxGeometry relative="1" as="geometry">
            <Array as="points">
              <mxPoint x="820" y="105" />
            </Array>
          </mxGeometry>
        </mxCell>
        <mxCell id="8u_2m2-8aZRo1fEBBMz4-27" value="Поставщики" style="text;html=1;align=center;verticalAlign=middle;resizable=0;points=[];autosize=1;strokeColor=none;fillColor=none;" parent="1" vertex="1">
          <mxGeometry x="865" y="90" width="90" height="30" as="geometry" />
        </mxCell>
        <mxCell id="8u_2m2-8aZRo1fEBBMz4-34" style="edgeStyle=orthogonalEdgeStyle;rounded=1;orthogonalLoop=1;jettySize=auto;html=1;entryX=0.5;entryY=0;entryDx=0;entryDy=0;" parent="1" source="8u_2m2-8aZRo1fEBBMz4-28" target="8u_2m2-8aZRo1fEBBMz4-17" edge="1">
          <mxGeometry relative="1" as="geometry" />
        </mxCell>
        <mxCell id="8u_2m2-8aZRo1fEBBMz4-36" style="edgeStyle=orthogonalEdgeStyle;rounded=1;orthogonalLoop=1;jettySize=auto;html=1;" parent="1" source="8u_2m2-8aZRo1fEBBMz4-28" target="8u_2m2-8aZRo1fEBBMz4-15" edge="1">
          <mxGeometry relative="1" as="geometry" />
        </mxCell>
        <mxCell id="8u_2m2-8aZRo1fEBBMz4-28" value="Банки" style="text;html=1;align=center;verticalAlign=middle;resizable=0;points=[];autosize=1;strokeColor=none;fillColor=none;" parent="1" vertex="1">
          <mxGeometry x="1040" y="90" width="60" height="30" as="geometry" />
        </mxCell>
        <mxCell id="8u_2m2-8aZRo1fEBBMz4-31" style="edgeStyle=orthogonalEdgeStyle;rounded=1;orthogonalLoop=1;jettySize=auto;html=1;entryX=0.5;entryY=1;entryDx=0;entryDy=0;" parent="1" source="8u_2m2-8aZRo1fEBBMz4-29" target="8u_2m2-8aZRo1fEBBMz4-12" edge="1">
          <mxGeometry relative="1" as="geometry">
            <Array as="points">
              <mxPoint x="965" y="510" />
              <mxPoint x="820" y="510" />
            </Array>
          </mxGeometry>
        </mxCell>
        <mxCell id="8u_2m2-8aZRo1fEBBMz4-32" style="edgeStyle=orthogonalEdgeStyle;rounded=1;orthogonalLoop=1;jettySize=auto;html=1;entryX=0.448;entryY=1.012;entryDx=0;entryDy=0;entryPerimeter=0;" parent="1" source="8u_2m2-8aZRo1fEBBMz4-29" target="8u_2m2-8aZRo1fEBBMz4-15" edge="1">
          <mxGeometry relative="1" as="geometry">
            <Array as="points">
              <mxPoint x="964" y="420" />
              <mxPoint x="964" y="420" />
            </Array>
          </mxGeometry>
        </mxCell>
        <mxCell id="8u_2m2-8aZRo1fEBBMz4-33" style="edgeStyle=orthogonalEdgeStyle;rounded=1;orthogonalLoop=1;jettySize=auto;html=1;" parent="1" source="8u_2m2-8aZRo1fEBBMz4-29" target="8u_2m2-8aZRo1fEBBMz4-16" edge="1">
          <mxGeometry relative="1" as="geometry">
            <Array as="points">
              <mxPoint x="965" y="510" />
              <mxPoint x="1120" y="510" />
            </Array>
          </mxGeometry>
        </mxCell>
        <mxCell id="8u_2m2-8aZRo1fEBBMz4-35" style="edgeStyle=orthogonalEdgeStyle;rounded=1;orthogonalLoop=1;jettySize=auto;html=1;entryX=0.5;entryY=1;entryDx=0;entryDy=0;" parent="1" target="8u_2m2-8aZRo1fEBBMz4-18" edge="1">
          <mxGeometry relative="1" as="geometry">
            <mxPoint x="980" y="510" as="sourcePoint" />
            <Array as="points">
              <mxPoint x="1420" y="510" />
            </Array>
          </mxGeometry>
        </mxCell>
        <mxCell id="8u_2m2-8aZRo1fEBBMz4-29" value="Персонал предприятия" style="text;html=1;align=center;verticalAlign=middle;resizable=0;points=[];autosize=1;strokeColor=none;fillColor=none;" parent="1" vertex="1">
          <mxGeometry x="890" y="530" width="150" height="30" as="geometry" />
        </mxCell>
        <mxCell id="8u_2m2-8aZRo1fEBBMz4-37" style="edgeStyle=orthogonalEdgeStyle;rounded=1;orthogonalLoop=1;jettySize=auto;html=1;" parent="1" source="8u_2m2-8aZRo1fEBBMz4-18" edge="1">
          <mxGeometry relative="1" as="geometry">
            <mxPoint x="1360" y="460" as="targetPoint" />
            <Array as="points">
              <mxPoint x="1500" y="470" />
              <mxPoint x="1500" y="500" />
              <mxPoint x="1340" y="500" />
              <mxPoint x="1340" y="460" />
            </Array>
          </mxGeometry>
        </mxCell>
        <mxCell id="8u_2m2-8aZRo1fEBBMz4-38" value="Поломка" style="text;html=1;align=center;verticalAlign=middle;resizable=0;points=[];autosize=1;strokeColor=none;fillColor=none;" parent="1" vertex="1">
          <mxGeometry x="1503" y="468" width="70" height="30" as="geometry" />
        </mxCell>
        <mxCell id="ZmViz8DE3PfzvB5i2sEa-2" value="&lt;b&gt;Прием автомобилей&lt;/b&gt;" style="rounded=0;whiteSpace=wrap;html=1;" vertex="1" parent="1">
          <mxGeometry x="824" y="700" width="120" height="60" as="geometry" />
        </mxCell>
        <mxCell id="ZmViz8DE3PfzvB5i2sEa-3" value="&lt;font style=&quot;font-size: 10px;&quot;&gt;Автомобили и детали&lt;/font&gt;" style="text;html=1;align=center;verticalAlign=middle;resizable=0;points=[];autosize=1;strokeColor=none;fillColor=none;" vertex="1" parent="1">
          <mxGeometry x="710" y="700" width="120" height="30" as="geometry" />
        </mxCell>
        <mxCell id="ZmViz8DE3PfzvB5i2sEa-4" value="" style="endArrow=classic;html=1;rounded=0;entryX=0;entryY=0.5;entryDx=0;entryDy=0;exitX=0.053;exitY=1.017;exitDx=0;exitDy=0;exitPerimeter=0;" edge="1" parent="1" source="ZmViz8DE3PfzvB5i2sEa-3">
          <mxGeometry width="50" height="50" relative="1" as="geometry">
            <mxPoint x="724" y="730" as="sourcePoint" />
            <mxPoint x="824" y="730" as="targetPoint" />
          </mxGeometry>
        </mxCell>
        <mxCell id="ZmViz8DE3PfzvB5i2sEa-5" style="edgeStyle=orthogonalEdgeStyle;rounded=1;orthogonalLoop=1;jettySize=auto;html=1;entryX=0;entryY=0.5;entryDx=0;entryDy=0;" edge="1" parent="1" target="ZmViz8DE3PfzvB5i2sEa-8">
          <mxGeometry relative="1" as="geometry">
            <Array as="points">
              <mxPoint x="954" y="730" />
              <mxPoint x="954" y="790" />
            </Array>
            <mxPoint x="944" y="730.0000000000002" as="sourcePoint" />
          </mxGeometry>
        </mxCell>
        <mxCell id="ZmViz8DE3PfzvB5i2sEa-7" style="edgeStyle=orthogonalEdgeStyle;rounded=1;orthogonalLoop=1;jettySize=auto;html=1;entryX=0;entryY=0.5;entryDx=0;entryDy=0;" edge="1" parent="1" source="ZmViz8DE3PfzvB5i2sEa-8">
          <mxGeometry relative="1" as="geometry">
            <Array as="points">
              <mxPoint x="1104" y="790" />
              <mxPoint x="1104" y="850" />
            </Array>
            <mxPoint x="1124" y="849.9999999999998" as="targetPoint" />
          </mxGeometry>
        </mxCell>
        <mxCell id="ZmViz8DE3PfzvB5i2sEa-8" value="&lt;b&gt;Продажа автомобилей&lt;/b&gt;" style="rounded=0;whiteSpace=wrap;html=1;" vertex="1" parent="1">
          <mxGeometry x="974" y="760" width="120" height="60" as="geometry" />
        </mxCell>
        <mxCell id="ZmViz8DE3PfzvB5i2sEa-9" style="edgeStyle=orthogonalEdgeStyle;rounded=1;orthogonalLoop=1;jettySize=auto;html=1;entryX=0;entryY=0.5;entryDx=0;entryDy=0;" edge="1" parent="1" target="ZmViz8DE3PfzvB5i2sEa-11">
          <mxGeometry relative="1" as="geometry">
            <Array as="points">
              <mxPoint x="1104" y="790" />
              <mxPoint x="1104" y="850" />
            </Array>
            <mxPoint x="1094" y="790.0000000000002" as="sourcePoint" />
          </mxGeometry>
        </mxCell>
        <mxCell id="ZmViz8DE3PfzvB5i2sEa-11" value="&lt;b&gt;Сервисное обслуживание&lt;/b&gt;" style="rounded=0;whiteSpace=wrap;html=1;" vertex="1" parent="1">
          <mxGeometry x="1124" y="820" width="120" height="60" as="geometry" />
        </mxCell>
        <mxCell id="ZmViz8DE3PfzvB5i2sEa-12" value="&lt;font style=&quot;font-size: 10px;&quot;&gt;Готовые заказы&lt;/font&gt;" style="text;html=1;align=center;verticalAlign=middle;resizable=0;points=[];autosize=1;strokeColor=none;fillColor=none;" vertex="1" parent="1">
          <mxGeometry x="1237" y="825.97" width="100" height="30" as="geometry" />
        </mxCell>
        <mxCell id="ZmViz8DE3PfzvB5i2sEa-13" value="" style="endArrow=none;html=1;rounded=0;exitX=1;exitY=0.5;exitDx=0;exitDy=0;endFill=0;" edge="1" parent="1">
          <mxGeometry width="50" height="50" relative="1" as="geometry">
            <mxPoint x="1244" y="853.97" as="sourcePoint" />
            <mxPoint x="1324" y="852.97" as="targetPoint" />
          </mxGeometry>
        </mxCell>
        <mxCell id="ZmViz8DE3PfzvB5i2sEa-14" style="edgeStyle=orthogonalEdgeStyle;rounded=1;orthogonalLoop=1;jettySize=auto;html=1;entryX=0.5;entryY=0;entryDx=0;entryDy=0;jumpStyle=arc;" edge="1" parent="1" source="ZmViz8DE3PfzvB5i2sEa-15" target="ZmViz8DE3PfzvB5i2sEa-2">
          <mxGeometry relative="1" as="geometry">
            <Array as="points">
              <mxPoint x="884" y="625" />
            </Array>
          </mxGeometry>
        </mxCell>
        <mxCell id="ZmViz8DE3PfzvB5i2sEa-15" value="Поставщики" style="text;html=1;align=center;verticalAlign=middle;resizable=0;points=[];autosize=1;strokeColor=none;fillColor=none;" vertex="1" parent="1">
          <mxGeometry x="929" y="610" width="90" height="30" as="geometry" />
        </mxCell>
        <mxCell id="ZmViz8DE3PfzvB5i2sEa-19" style="edgeStyle=orthogonalEdgeStyle;rounded=1;orthogonalLoop=1;jettySize=auto;html=1;entryX=0.5;entryY=1;entryDx=0;entryDy=0;" edge="1" parent="1" source="ZmViz8DE3PfzvB5i2sEa-23" target="ZmViz8DE3PfzvB5i2sEa-2">
          <mxGeometry relative="1" as="geometry">
            <Array as="points">
              <mxPoint x="1029" y="1030" />
              <mxPoint x="884" y="1030" />
            </Array>
          </mxGeometry>
        </mxCell>
        <mxCell id="ZmViz8DE3PfzvB5i2sEa-21" style="edgeStyle=orthogonalEdgeStyle;rounded=1;orthogonalLoop=1;jettySize=auto;html=1;" edge="1" parent="1" source="ZmViz8DE3PfzvB5i2sEa-23" target="ZmViz8DE3PfzvB5i2sEa-8">
          <mxGeometry relative="1" as="geometry">
            <Array as="points">
              <mxPoint x="1029" y="920" />
              <mxPoint x="1029" y="920" />
            </Array>
          </mxGeometry>
        </mxCell>
        <mxCell id="ZmViz8DE3PfzvB5i2sEa-22" style="edgeStyle=orthogonalEdgeStyle;rounded=1;orthogonalLoop=1;jettySize=auto;html=1;entryX=0.5;entryY=1;entryDx=0;entryDy=0;exitX=0.497;exitY=-0.068;exitDx=0;exitDy=0;exitPerimeter=0;" edge="1" parent="1" target="ZmViz8DE3PfzvB5i2sEa-11" source="ZmViz8DE3PfzvB5i2sEa-23">
          <mxGeometry relative="1" as="geometry">
            <mxPoint x="1030" y="1030" as="sourcePoint" />
            <Array as="points">
              <mxPoint x="1029" y="1030" />
              <mxPoint x="1184" y="1030" />
            </Array>
          </mxGeometry>
        </mxCell>
        <mxCell id="ZmViz8DE3PfzvB5i2sEa-23" value="Персонал предприятия" style="text;html=1;align=center;verticalAlign=middle;resizable=0;points=[];autosize=1;strokeColor=none;fillColor=none;" vertex="1" parent="1">
          <mxGeometry x="954" y="1050" width="150" height="30" as="geometry" />
        </mxCell>
        <mxCell id="ZmViz8DE3PfzvB5i2sEa-24" style="edgeStyle=orthogonalEdgeStyle;rounded=1;orthogonalLoop=1;jettySize=auto;html=1;" edge="1" parent="1" source="ZmViz8DE3PfzvB5i2sEa-11">
          <mxGeometry relative="1" as="geometry">
            <mxPoint x="1124" y="860" as="targetPoint" />
            <Array as="points">
              <mxPoint x="1264" y="870" />
              <mxPoint x="1264" y="900" />
              <mxPoint x="1104" y="900" />
              <mxPoint x="1104" y="860" />
            </Array>
          </mxGeometry>
        </mxCell>
        <mxCell id="ZmViz8DE3PfzvB5i2sEa-25" value="Поломка" style="text;html=1;align=center;verticalAlign=middle;resizable=0;points=[];autosize=1;strokeColor=none;fillColor=none;" vertex="1" parent="1">
          <mxGeometry x="1267" y="868" width="70" height="30" as="geometry" />
        </mxCell>
      </root>
    </mxGraphModel>
  </diagram>
</mxfile>
